  0
SECTION
  2
BLOCKS
  0
ENDSEC
  0
SECTION
  2
ENTITIES
  0
LINE
  8
0
 10
-300
 11
-300
 20
-150
 21
150
  0
LINE
  8
0
 10
-300
 11
300
 20
150
 21
150
  0
LINE
  8
0
 10
300
 11
300
 20
150
 21
-150
  0
LINE
  8
0
 10
300
 11
-300
 20
-150
 21
-150
  0
LINE
  8
0
 10
-292.5
 11
-291.768
 20
-140
 21
-138.232
  0
LINE
  8
0
 10
-291.768
 11
-290
 20
-138.232
 21
-137.5
  0
LINE
  8
0
 10
-290
 11
-288.232
 20
-137.5
 21
-138.232
  0
LINE
  8
0
 10
-288.232
 11
-287.5
 20
-138.232
 21
-140
  0
LINE
  8
0
 10
-287.5
 11
-288.232
 20
-140
 21
-141.768
  0
LINE
  8
0
 10
-288.232
 11
-290
 20
-141.768
 21
-142.5
  0
LINE
  8
0
 10
-290
 11
-291.768
 20
-142.5
 21
-141.768
  0
LINE
  8
0
 10
-291.768
 11
-292.5
 20
-141.768
 21
-140
  0
LINE
  8
0
 10
-292.5
 11
-291.768
 20
140
 21
141.768
  0
LINE
  8
0
 10
-291.768
 11
-290
 20
141.768
 21
142.5
  0
LINE
  8
0
 10
-290
 11
-288.232
 20
142.5
 21
141.768
  0
LINE
  8
0
 10
-288.232
 11
-287.5
 20
141.768
 21
140
  0
LINE
  8
0
 10
-287.5
 11
-288.232
 20
140
 21
138.232
  0
LINE
  8
0
 10
-288.232
 11
-290
 20
138.232
 21
137.5
  0
LINE
  8
0
 10
-290
 11
-291.768
 20
137.5
 21
138.232
  0
LINE
  8
0
 10
-291.768
 11
-292.5
 20
138.232
 21
140
  0
LINE
  8
0
 10
164.928
 11
164.928
 20
88.254
 21
90.146
  0
LINE
  8
0
 10
164.928
 11
165.611
 20
90.146
 21
91.911
  0
LINE
  8
0
 10
165.611
 11
166.886
 20
91.911
 21
93.31
  0
LINE
  8
0
 10
166.886
 11
168.581
 20
93.31
 21
94.153
  0
LINE
  8
0
 10
168.581
 11
170.465
 20
94.153
 21
94.328
  0
LINE
  8
0
 10
170.465
 11
172.286
 20
94.328
 21
93.81
  0
LINE
  8
0
 10
172.286
 11
173.796
 20
93.81
 21
92.67
  0
LINE
  8
0
 10
173.796
 11
174.792
 20
92.67
 21
91.06
  0
LINE
  8
0
 10
174.792
 11
175.14
 20
91.06
 21
89.2
  0
LINE
  8
0
 10
175.14
 11
174.792
 20
89.2
 21
87.34
  0
LINE
  8
0
 10
174.792
 11
173.796
 20
87.34
 21
85.73
  0
LINE
  8
0
 10
173.796
 11
172.286
 20
85.73
 21
84.59
  0
LINE
  8
0
 10
172.286
 11
170.89
 20
84.59
 21
84.193
  0
LINE
  8
0
 10
170.89
 11
170.89
 20
84.193
 21
83.05
  0
LINE
  8
0
 10
170.89
 11
169.09
 20
83.05
 21
83.05
  0
LINE
  8
0
 10
169.09
 11
169.09
 20
83.05
 21
84.2
  0
LINE
  8
0
 10
169.09
 11
168.581
 20
84.2
 21
84.247
  0
LINE
  8
0
 10
168.581
 11
166.886
 20
84.247
 21
85.09
  0
LINE
  8
0
 10
166.886
 11
165.611
 20
85.09
 21
86.489
  0
LINE
  8
0
 10
165.611
 11
164.928
 20
86.489
 21
88.254
  0
LINE
  8
0
 10
189.928
 11
189.928
 20
88.254
 21
90.146
  0
LINE
  8
0
 10
189.928
 11
190.611
 20
90.146
 21
91.911
  0
LINE
  8
0
 10
190.611
 11
191.886
 20
91.911
 21
93.31
  0
LINE
  8
0
 10
191.886
 11
193.581
 20
93.31
 21
94.153
  0
LINE
  8
0
 10
193.581
 11
195.465
 20
94.153
 21
94.328
  0
LINE
  8
0
 10
195.465
 11
197.286
 20
94.328
 21
93.81
  0
LINE
  8
0
 10
197.286
 11
198.796
 20
93.81
 21
92.67
  0
LINE
  8
0
 10
198.796
 11
199.792
 20
92.67
 21
91.06
  0
LINE
  8
0
 10
199.792
 11
200.14
 20
91.06
 21
89.2
  0
LINE
  8
0
 10
200.14
 11
199.792
 20
89.2
 21
87.34
  0
LINE
  8
0
 10
199.792
 11
198.796
 20
87.34
 21
85.73
  0
LINE
  8
0
 10
198.796
 11
197.286
 20
85.73
 21
84.59
  0
LINE
  8
0
 10
197.286
 11
195.89
 20
84.59
 21
84.193
  0
LINE
  8
0
 10
195.89
 11
195.89
 20
84.193
 21
83.05
  0
LINE
  8
0
 10
195.89
 11
194.09
 20
83.05
 21
83.05
  0
LINE
  8
0
 10
194.09
 11
194.09
 20
83.05
 21
84.2
  0
LINE
  8
0
 10
194.09
 11
193.581
 20
84.2
 21
84.247
  0
LINE
  8
0
 10
193.581
 11
191.886
 20
84.247
 21
85.09
  0
LINE
  8
0
 10
191.886
 11
190.611
 20
85.09
 21
86.489
  0
LINE
  8
0
 10
190.611
 11
189.928
 20
86.489
 21
88.254
  0
LINE
  8
0
 10
287.5
 11
288.232
 20
-140
 21
-138.232
  0
LINE
  8
0
 10
288.232
 11
290
 20
-138.232
 21
-137.5
  0
LINE
  8
0
 10
290
 11
291.768
 20
-137.5
 21
-138.232
  0
LINE
  8
0
 10
291.768
 11
292.5
 20
-138.232
 21
-140
  0
LINE
  8
0
 10
292.5
 11
291.768
 20
-140
 21
-141.768
  0
LINE
  8
0
 10
291.768
 11
290
 20
-141.768
 21
-142.5
  0
LINE
  8
0
 10
290
 11
288.232
 20
-142.5
 21
-141.768
  0
LINE
  8
0
 10
288.232
 11
287.5
 20
-141.768
 21
-140
  0
LINE
  8
0
 10
287.5
 11
288.232
 20
140
 21
141.768
  0
LINE
  8
0
 10
288.232
 11
290
 20
141.768
 21
142.5
  0
LINE
  8
0
 10
290
 11
291.768
 20
142.5
 21
141.768
  0
LINE
  8
0
 10
291.768
 11
292.5
 20
141.768
 21
140
  0
LINE
  8
0
 10
292.5
 11
291.768
 20
140
 21
138.232
  0
LINE
  8
0
 10
291.768
 11
290
 20
138.232
 21
137.5
  0
LINE
  8
0
 10
290
 11
288.232
 20
137.5
 21
138.232
  0
LINE
  8
0
 10
288.232
 11
287.5
 20
138.232
 21
140
  0
ENDSEC
  0
SECTION
  2
OBJECTS
  0
DICTIONARY
  0
ENDSEC
  0
EOF
