  0
SECTION
  2
BLOCKS
  0
ENDSEC
  0
SECTION
  2
ENTITIES
  0
LINE
  8
0
 10
-300
 11
-300
 20
-150
 21
150
  0
LINE
  8
0
 10
-300
 11
300
 20
150
 21
150
  0
LINE
  8
0
 10
300
 11
300
 20
150
 21
-150
  0
LINE
  8
0
 10
300
 11
-300
 20
-150
 21
-150
  0
LINE
  8
0
 10
-292.5
 11
-291.768
 20
-140
 21
-138.232
  0
LINE
  8
0
 10
-291.768
 11
-290
 20
-138.232
 21
-137.5
  0
LINE
  8
0
 10
-290
 11
-288.232
 20
-137.5
 21
-138.232
  0
LINE
  8
0
 10
-288.232
 11
-287.5
 20
-138.232
 21
-140
  0
LINE
  8
0
 10
-287.5
 11
-288.232
 20
-140
 21
-141.768
  0
LINE
  8
0
 10
-288.232
 11
-290
 20
-141.768
 21
-142.5
  0
LINE
  8
0
 10
-290
 11
-291.768
 20
-142.5
 21
-141.768
  0
LINE
  8
0
 10
-291.768
 11
-292.5
 20
-141.768
 21
-140
  0
LINE
  8
0
 10
-292.5
 11
-291.768
 20
140
 21
141.768
  0
LINE
  8
0
 10
-291.768
 11
-290
 20
141.768
 21
142.5
  0
LINE
  8
0
 10
-290
 11
-288.232
 20
142.5
 21
141.768
  0
LINE
  8
0
 10
-288.232
 11
-287.5
 20
141.768
 21
140
  0
LINE
  8
0
 10
-287.5
 11
-288.232
 20
140
 21
138.232
  0
LINE
  8
0
 10
-288.232
 11
-290
 20
138.232
 21
137.5
  0
LINE
  8
0
 10
-290
 11
-291.768
 20
137.5
 21
138.232
  0
LINE
  8
0
 10
-291.768
 11
-292.5
 20
138.232
 21
140
  0
LINE
  8
0
 10
-242.291
 11
-242.221
 20
-98.77
 21
-96.993
  0
LINE
  8
0
 10
-242.221
 11
-241.026
 20
-96.993
 21
-95.676
  0
LINE
  8
0
 10
-241.026
 11
-239.264
 20
-95.676
 21
-95.437
  0
LINE
  8
0
 10
-239.264
 11
-237.759
 20
-95.437
 21
-96.386
  0
LINE
  8
0
 10
-237.759
 11
-237.217
 20
-96.386
 21
-98.08
  0
LINE
  8
0
 10
-237.217
 11
-237.89
 20
-98.08
 21
-99.726
  0
LINE
  8
0
 10
-237.89
 11
-239.465
 20
-99.726
 21
-100.553
  0
LINE
  8
0
 10
-239.465
 11
-241.202
 20
-100.553
 21
-100.177
  0
LINE
  8
0
 10
-241.202
 11
-242.291
 20
-100.177
 21
-98.77
  0
LINE
  8
0
 10
-240.867
 11
-240.658
 20
-79.787
 21
-78.021
  0
LINE
  8
0
 10
-240.658
 11
-239.363
 20
-78.021
 21
-76.802
  0
LINE
  8
0
 10
-239.363
 11
-237.588
 20
-76.802
 21
-76.702
  0
LINE
  8
0
 10
-237.588
 11
-236.162
 20
-76.702
 21
-77.766
  0
LINE
  8
0
 10
-236.162
 11
-235.754
 20
-77.766
 21
-79.497
  0
LINE
  8
0
 10
-235.754
 11
-236.555
 20
-79.497
 21
-81.085
  0
LINE
  8
0
 10
-236.555
 11
-238.189
 20
-81.085
 21
-81.786
  0
LINE
  8
0
 10
-238.189
 11
-239.892
 20
-81.786
 21
-81.275
  0
LINE
  8
0
 10
-239.892
 11
-240.867
 20
-81.275
 21
-79.787
  0
LINE
  8
0
 10
-237.958
 11
-237.611
 20
-60.974
 21
-59.23
  0
LINE
  8
0
 10
-237.611
 11
-236.224
 20
-59.23
 21
-58.116
  0
LINE
  8
0
 10
-236.224
 11
-234.447
 20
-58.116
 21
-58.155
  0
LINE
  8
0
 10
-234.447
 11
-233.109
 20
-58.155
 21
-59.328
  0
LINE
  8
0
 10
-233.109
 11
-232.838
 20
-59.328
 21
-61.086
  0
LINE
  8
0
 10
-232.838
 11
-233.761
 20
-61.086
 21
-62.606
  0
LINE
  8
0
 10
-233.761
 11
-235.446
 20
-62.606
 21
-63.177
  0
LINE
  8
0
 10
-235.446
 11
-237.103
 20
-63.177
 21
-62.533
  0
LINE
  8
0
 10
-237.103
 11
-237.958
 20
-62.533
 21
-60.974
  0
LINE
  8
0
 10
-233.582
 11
-233.099
 20
-42.447
 21
-40.736
  0
LINE
  8
0
 10
-233.099
 11
-231.629
 20
-40.736
 21
-39.734
  0
LINE
  8
0
 10
-231.629
 11
-229.86
 20
-39.734
 21
-39.913
  0
LINE
  8
0
 10
-229.86
 11
-228.618
 20
-39.913
 21
-41.187
  0
LINE
  8
0
 10
-228.618
 11
-228.487
 20
-41.187
 21
-42.96
  0
LINE
  8
0
 10
-228.487
 11
-229.526
 20
-42.96
 21
-44.403
  0
LINE
  8
0
 10
-229.526
 11
-231.25
 20
-44.403
 21
-44.841
  0
LINE
  8
0
 10
-231.25
 11
-232.852
 20
-44.841
 21
-44.069
  0
LINE
  8
0
 10
-232.852
 11
-233.582
 20
-44.069
 21
-42.447
  0
LINE
  8
0
 10
-227.766
 11
-227.15
 20
-24.32
 21
-22.652
  0
LINE
  8
0
 10
-227.15
 11
-225.606
 20
-22.652
 21
-21.769
  0
LINE
  8
0
 10
-225.606
 11
-223.857
 20
-21.769
 21
-22.086
  0
LINE
  8
0
 10
-223.857
 11
-222.719
 20
-22.086
 21
-23.454
  0
LINE
  8
0
 10
-222.719
 11
-222.727
 20
-23.454
 21
-25.232
  0
LINE
  8
0
 10
-222.727
 11
-223.875
 20
-25.232
 21
-26.589
  0
LINE
  8
0
 10
-223.875
 11
-225.629
 20
-26.589
 21
-26.89
  0
LINE
  8
0
 10
-225.629
 11
-227.165
 20
-26.89
 21
-25.995
  0
LINE
  8
0
 10
-227.165
 11
-227.766
 20
-25.995
 21
-24.32
  0
LINE
  8
0
 10
-220.545
 11
-219.801
 20
-6.706
 21
-5.092
  0
LINE
  8
0
 10
-219.801
 11
-218.192
 20
-5.092
 21
-4.332
  0
LINE
  8
0
 10
-218.192
 11
-216.473
 20
-4.332
 21
-4.786
  0
LINE
  8
0
 10
-216.473
 11
-215.446
 20
-4.786
 21
-6.238
  0
LINE
  8
0
 10
-215.446
 11
-215.593
 20
-6.238
 21
-8.01
  0
LINE
  8
0
 10
-215.593
 11
-216.845
 20
-8.01
 21
-9.273
  0
LINE
  8
0
 10
-216.845
 11
-218.617
 20
-9.273
 21
-9.435
  0
LINE
  8
0
 10
-218.617
 11
-220.078
 20
-9.435
 21
-8.423
  0
LINE
  8
0
 10
-220.078
 11
-220.545
 20
-8.423
 21
-6.706
  0
LINE
  8
0
 10
-211.965
 11
-211.096
 20
10.287
 21
11.838
  0
LINE
  8
0
 10
-211.096
 11
-209.433
 20
11.838
 21
12.469
  0
LINE
  8
0
 10
-209.433
 11
-207.755
 20
12.469
 21
11.882
  0
LINE
  8
0
 10
-207.755
 11
-206.845
 20
11.882
 21
10.354
  0
LINE
  8
0
 10
-206.845
 11
-207.131
 20
10.354
 21
8.599
  0
LINE
  8
0
 10
-207.131
 11
-208.478
 20
8.599
 21
7.438
  0
LINE
  8
0
 10
-208.478
 11
-210.256
 20
7.438
 21
7.415
  0
LINE
  8
0
 10
-210.256
 11
-211.634
 20
7.415
 21
8.539
  0
LINE
  8
0
 10
-211.634
 11
-211.965
 20
8.539
 21
10.287
  0
LINE
  8
0
 10
-202.078
 11
-201.09
 20
26.555
 21
28.033
  0
LINE
  8
0
 10
-201.09
 11
-199.382
 20
28.033
 21
28.532
  0
LINE
  8
0
 10
-199.382
 11
-197.755
 20
28.532
 21
27.815
  0
LINE
  8
0
 10
-197.755
 11
-196.968
 20
27.815
 21
26.22
  0
LINE
  8
0
 10
-196.968
 11
-197.391
 20
26.22
 21
24.492
  0
LINE
  8
0
 10
-197.391
 11
-198.825
 20
24.492
 21
23.441
  0
LINE
  8
0
 10
-198.825
 11
-200.6
 20
23.441
 21
23.558
  0
LINE
  8
0
 10
-200.6
 11
-201.885
 20
23.558
 21
24.787
  0
LINE
  8
0
 10
-201.885
 11
-202.078
 20
24.787
 21
26.555
  0
LINE
  8
0
 10
-190.945
 11
-189.844
 20
41.997
 21
43.393
  0
LINE
  8
0
 10
-189.844
 11
-188.103
 20
43.393
 21
43.756
  0
LINE
  8
0
 10
-188.103
 11
-186.537
 20
43.756
 21
42.914
  0
LINE
  8
0
 10
-186.537
 11
-185.877
 20
42.914
 21
41.262
  0
LINE
  8
0
 10
-185.877
 11
-186.434
 20
41.262
 21
39.573
  0
LINE
  8
0
 10
-186.434
 11
-187.946
 20
39.573
 21
38.637
  0
LINE
  8
0
 10
-187.946
 11
-189.707
 20
38.637
 21
38.893
  0
LINE
  8
0
 10
-189.707
 11
-190.891
 20
38.893
 21
40.219
  0
LINE
  8
0
 10
-190.891
 11
-190.945
 20
40.219
 21
41.997
  0
LINE
  8
0
 10
-178.721
 11
-178.635
 20
54.741
 21
56.518
  0
LINE
  8
0
 10
-178.635
 11
-177.428
 20
56.518
 21
57.823
  0
LINE
  8
0
 10
-177.428
 11
-175.663
 20
57.823
 21
58.048
  0
LINE
  8
0
 10
-175.663
 11
-174.168
 20
58.048
 21
57.086
  0
LINE
  8
0
 10
-174.168
 11
-173.64
 20
57.086
 21
55.387
  0
LINE
  8
0
 10
-173.64
 11
-174.328
 20
55.387
 21
53.747
  0
LINE
  8
0
 10
-174.328
 11
-175.909
 20
53.747
 21
52.933
  0
LINE
  8
0
 10
-175.909
 11
-177.644
 20
52.933
 21
53.326
  0
LINE
  8
0
 10
-177.644
 11
-178.721
 20
53.326
 21
54.741
  0
LINE
  8
0
 10
-165.448
 11
-165.223
 20
68.263
 21
70.028
  0
LINE
  8
0
 10
-165.223
 11
-163.918
 20
70.028
 21
71.235
  0
LINE
  8
0
 10
-163.918
 11
-162.141
 20
71.235
 21
71.321
  0
LINE
  8
0
 10
-162.141
 11
-160.726
 20
71.321
 21
70.244
  0
LINE
  8
0
 10
-160.726
 11
-160.333
 20
70.244
 21
68.509
  0
LINE
  8
0
 10
-160.333
 11
-161.147
 20
68.509
 21
66.928
  0
LINE
  8
0
 10
-161.147
 11
-162.787
 20
66.928
 21
66.24
  0
LINE
  8
0
 10
-162.787
 11
-164.486
 20
66.24
 21
66.768
  0
LINE
  8
0
 10
-164.486
 11
-165.448
 20
66.768
 21
68.263
  0
LINE
  8
0
 10
-151.156
 11
-150.793
 20
80.703
 21
82.444
  0
LINE
  8
0
 10
-150.793
 11
-149.397
 20
82.444
 21
83.545
  0
LINE
  8
0
 10
-149.397
 11
-147.619
 20
83.545
 21
83.491
  0
LINE
  8
0
 10
-147.619
 11
-146.293
 20
83.491
 21
82.307
  0
LINE
  8
0
 10
-146.293
 11
-146.037
 20
82.307
 21
80.546
  0
LINE
  8
0
 10
-146.037
 11
-146.973
 20
80.546
 21
79.034
  0
LINE
  8
0
 10
-146.973
 11
-148.662
 20
79.034
 21
78.477
  0
LINE
  8
0
 10
-148.662
 11
-150.314
 20
78.477
 21
79.137
  0
LINE
  8
0
 10
-150.314
 11
-151.156
 20
79.137
 21
80.703
  0
LINE
  8
0
 10
-135.932
 11
-135.433
 20
91.982
 21
93.69
  0
LINE
  8
0
 10
-135.433
 11
-133.955
 20
93.69
 21
94.678
  0
LINE
  8
0
 10
-133.955
 11
-132.187
 20
94.678
 21
94.485
  0
LINE
  8
0
 10
-132.187
 11
-130.958
 20
94.485
 21
93.2
  0
LINE
  8
0
 10
-130.958
 11
-130.841
 20
93.2
 21
91.425
  0
LINE
  8
0
 10
-130.841
 11
-131.892
 20
91.425
 21
89.991
  0
LINE
  8
0
 10
-131.892
 11
-133.62
 20
89.991
 21
89.568
  0
LINE
  8
0
 10
-133.62
 11
-135.215
 20
89.568
 21
90.355
  0
LINE
  8
0
 10
-135.215
 11
-135.932
 20
90.355
 21
91.982
  0
LINE
  8
0
 10
-119.869
 11
-119.238
 20
102.033
 21
103.696
  0
LINE
  8
0
 10
-119.238
 11
-117.687
 20
103.696
 21
104.565
  0
LINE
  8
0
 10
-117.687
 11
-115.939
 20
104.565
 21
104.234
  0
LINE
  8
0
 10
-115.939
 11
-114.815
 20
104.234
 21
102.856
  0
LINE
  8
0
 10
-114.815
 11
-114.838
 20
102.856
 21
101.078
  0
LINE
  8
0
 10
-114.838
 11
-115.999
 20
101.078
 21
99.731
  0
LINE
  8
0
 10
-115.999
 11
-117.754
 20
99.731
 21
99.445
  0
LINE
  8
0
 10
-117.754
 11
-119.282
 20
99.445
 21
100.355
  0
LINE
  8
0
 10
-119.282
 11
-119.869
 20
100.355
 21
102.033
  0
LINE
  8
0
 10
-103.068
 11
-102.308
 20
110.792
 21
112.401
  0
LINE
  8
0
 10
-102.308
 11
-100.694
 20
112.401
 21
113.145
  0
LINE
  8
0
 10
-100.694
 11
-98.977
 20
113.145
 21
112.678
  0
LINE
  8
0
 10
-98.977
 11
-97.965
 20
112.678
 21
111.217
  0
LINE
  8
0
 10
-97.965
 11
-98.127
 20
111.217
 21
109.445
  0
LINE
  8
0
 10
-98.127
 11
-99.39
 20
109.445
 21
108.193
  0
LINE
  8
0
 10
-99.39
 11
-101.162
 20
108.193
 21
108.046
  0
LINE
  8
0
 10
-101.162
 11
-102.614
 20
108.046
 21
109.073
  0
LINE
  8
0
 10
-102.614
 11
-103.068
 20
109.073
 21
110.792
  0
LINE
  8
0
 10
-85.631
 11
-84.748
 20
118.206
 21
119.75
  0
LINE
  8
0
 10
-84.748
 11
-83.08
 20
119.75
 21
120.366
  0
LINE
  8
0
 10
-83.08
 11
-81.405
 20
120.366
 21
119.765
  0
LINE
  8
0
 10
-81.405
 11
-80.51
 20
119.765
 21
118.229
  0
LINE
  8
0
 10
-80.51
 11
-80.811
 20
118.229
 21
116.475
  0
LINE
  8
0
 10
-80.811
 11
-82.168
 20
116.475
 21
115.327
  0
LINE
  8
0
 10
-82.168
 11
-83.946
 20
115.327
 21
115.319
  0
LINE
  8
0
 10
-83.946
 11
-85.314
 20
115.319
 21
116.457
  0
LINE
  8
0
 10
-85.314
 11
-85.631
 20
116.457
 21
118.206
  0
LINE
  8
0
 10
-67.666
 11
-66.664
 20
124.229
 21
125.699
  0
LINE
  8
0
 10
-66.664
 11
-64.953
 20
125.699
 21
126.182
  0
LINE
  8
0
 10
-64.953
 11
-63.331
 20
126.182
 21
125.452
  0
LINE
  8
0
 10
-63.331
 11
-62.559
 20
125.452
 21
123.85
  0
LINE
  8
0
 10
-62.559
 11
-62.997
 20
123.85
 21
122.126
  0
LINE
  8
0
 10
-62.997
 11
-64.44
 20
122.126
 21
121.087
  0
LINE
  8
0
 10
-64.44
 11
-66.213
 20
121.087
 21
121.218
  0
LINE
  8
0
 10
-66.213
 11
-67.487
 20
121.218
 21
122.46
  0
LINE
  8
0
 10
-67.487
 11
-67.666
 20
122.46
 21
124.229
  0
LINE
  8
0
 10
-49.284
 11
-48.17
 20
128.824
 21
130.211
  0
LINE
  8
0
 10
-48.17
 11
-46.426
 20
130.211
 21
130.558
  0
LINE
  8
0
 10
-46.426
 11
-44.867
 20
130.558
 21
129.703
  0
LINE
  8
0
 10
-44.867
 11
-44.223
 20
129.703
 21
128.046
  0
LINE
  8
0
 10
-44.223
 11
-44.794
 20
128.046
 21
126.361
  0
LINE
  8
0
 10
-44.794
 11
-46.314
 20
126.361
 21
125.438
  0
LINE
  8
0
 10
-46.314
 11
-48.072
 20
125.438
 21
125.709
  0
LINE
  8
0
 10
-48.072
 11
-49.245
 20
125.709
 21
127.047
  0
LINE
  8
0
 10
-49.245
 11
-49.284
 20
127.047
 21
128.824
  0
LINE
  8
0
 10
-30.698
 11
-30.598
 20
130.188
 21
131.963
  0
LINE
  8
0
 10
-30.598
 11
-29.379
 20
131.963
 21
133.258
  0
LINE
  8
0
 10
-29.379
 11
-27.613
 20
133.258
 21
133.467
  0
LINE
  8
0
 10
-27.613
 11
-26.125
 20
133.467
 21
132.492
  0
LINE
  8
0
 10
-26.125
 11
-25.614
 20
132.492
 21
130.789
  0
LINE
  8
0
 10
-25.614
 11
-26.315
 20
130.789
 21
129.155
  0
LINE
  8
0
 10
-26.315
 11
-27.903
 20
129.155
 21
128.354
  0
LINE
  8
0
 10
-27.903
 11
-29.634
 20
128.354
 21
128.762
  0
LINE
  8
0
 10
-29.634
 11
-30.698
 20
128.762
 21
130.188
  0
LINE
  8
0
 10
-11.963
 11
-11.724
 20
131.864
 21
133.626
  0
LINE
  8
0
 10
-11.724
 11
-10.407
 20
133.626
 21
134.821
  0
LINE
  8
0
 10
-10.407
 11
-8.63
 20
134.821
 21
134.891
  0
LINE
  8
0
 10
-8.63
 11
-7.223
 20
134.891
 21
133.802
  0
LINE
  8
0
 10
-7.223
 11
-6.847
 20
133.802
 21
132.065
  0
LINE
  8
0
 10
-6.847
 11
-7.674
 20
132.065
 21
130.49
  0
LINE
  8
0
 10
-7.674
 11
-9.32
 20
130.49
 21
129.817
  0
LINE
  8
0
 10
-9.32
 11
-11.014
 20
129.817
 21
130.359
  0
LINE
  8
0
 10
-11.014
 11
-11.963
 20
130.359
 21
131.864
  0
LINE
  8
0
 10
-10
 11
-10
 20
-137.25
 21
-97.25
  0
LINE
  8
0
 10
-10
 11
-1.1
 20
-97.25
 21
-97.25
  0
LINE
  8
0
 10
-1.1
 11
-1.1
 20
-97.25
 21
-92.65
  0
LINE
  8
0
 10
-1.1
 11
1.1
 20
-92.65
 21
-92.65
  0
LINE
  8
0
 10
1.1
 11
1.1
 20
-92.65
 21
-97.25
  0
LINE
  8
0
 10
1.1
 11
10
 20
-97.25
 21
-97.25
  0
LINE
  8
0
 10
10
 11
10
 20
-97.25
 21
-137.25
  0
LINE
  8
0
 10
10
 11
1.1
 20
-137.25
 21
-137.25
  0
LINE
  8
0
 10
1.1
 11
1.1
 20
-137.25
 21
-141.85
  0
LINE
  8
0
 10
1.1
 11
-1.1
 20
-141.85
 21
-141.85
  0
LINE
  8
0
 10
-1.1
 11
-1.1
 20
-141.85
 21
-137.25
  0
LINE
  8
0
 10
-1.1
 11
-10
 20
-137.25
 21
-137.25
  0
LINE
  8
0
 10
-6.6
 11
-6.576
 20
-142.5
 21
-142.222
  0
LINE
  8
0
 10
-6.576
 11
-6.504
 20
-142.222
 21
-141.953
  0
LINE
  8
0
 10
-6.504
 11
-6.386
 20
-141.953
 21
-141.7
  0
LINE
  8
0
 10
-6.386
 11
-6.226
 20
-141.7
 21
-141.472
  0
LINE
  8
0
 10
-6.226
 11
-6.028
 20
-141.472
 21
-141.274
  0
LINE
  8
0
 10
-6.028
 11
-5.8
 20
-141.274
 21
-141.114
  0
LINE
  8
0
 10
-5.8
 11
-5.547
 20
-141.114
 21
-140.996
  0
LINE
  8
0
 10
-5.547
 11
-5.278
 20
-140.996
 21
-140.924
  0
LINE
  8
0
 10
-5.278
 11
-5
 20
-140.924
 21
-140.9
  0
LINE
  8
0
 10
-5
 11
-4.722
 20
-140.9
 21
-140.924
  0
LINE
  8
0
 10
-4.722
 11
-4.453
 20
-140.924
 21
-140.996
  0
LINE
  8
0
 10
-4.453
 11
-4.2
 20
-140.996
 21
-141.114
  0
LINE
  8
0
 10
-4.2
 11
-3.972
 20
-141.114
 21
-141.274
  0
LINE
  8
0
 10
-3.972
 11
-3.774
 20
-141.274
 21
-141.472
  0
LINE
  8
0
 10
-3.774
 11
-3.614
 20
-141.472
 21
-141.7
  0
LINE
  8
0
 10
-3.614
 11
-3.496
 20
-141.7
 21
-141.953
  0
LINE
  8
0
 10
-3.496
 11
-3.424
 20
-141.953
 21
-142.222
  0
LINE
  8
0
 10
-3.424
 11
-3.4
 20
-142.222
 21
-142.5
  0
LINE
  8
0
 10
-3.4
 11
-3.424
 20
-142.5
 21
-142.778
  0
LINE
  8
0
 10
-3.424
 11
-3.496
 20
-142.778
 21
-143.047
  0
LINE
  8
0
 10
-3.496
 11
-3.614
 20
-143.047
 21
-143.3
  0
LINE
  8
0
 10
-3.614
 11
-3.774
 20
-143.3
 21
-143.528
  0
LINE
  8
0
 10
-3.774
 11
-3.972
 20
-143.528
 21
-143.726
  0
LINE
  8
0
 10
-3.972
 11
-4.2
 20
-143.726
 21
-143.886
  0
LINE
  8
0
 10
-4.2
 11
-4.453
 20
-143.886
 21
-144.004
  0
LINE
  8
0
 10
-4.453
 11
-4.722
 20
-144.004
 21
-144.076
  0
LINE
  8
0
 10
-4.722
 11
-5
 20
-144.076
 21
-144.1
  0
LINE
  8
0
 10
-5
 11
-5.278
 20
-144.1
 21
-144.076
  0
LINE
  8
0
 10
-5.278
 11
-5.547
 20
-144.076
 21
-144.004
  0
LINE
  8
0
 10
-5.547
 11
-5.8
 20
-144.004
 21
-143.886
  0
LINE
  8
0
 10
-5.8
 11
-6.028
 20
-143.886
 21
-143.726
  0
LINE
  8
0
 10
-6.028
 11
-6.226
 20
-143.726
 21
-143.528
  0
LINE
  8
0
 10
-6.226
 11
-6.386
 20
-143.528
 21
-143.3
  0
LINE
  8
0
 10
-6.386
 11
-6.504
 20
-143.3
 21
-143.047
  0
LINE
  8
0
 10
-6.504
 11
-6.576
 20
-143.047
 21
-142.778
  0
LINE
  8
0
 10
-6.576
 11
-6.6
 20
-142.778
 21
-142.5
  0
LINE
  8
0
 10
-6.6
 11
-6.576
 20
-92
 21
-91.722
  0
LINE
  8
0
 10
-6.576
 11
-6.504
 20
-91.722
 21
-91.453
  0
LINE
  8
0
 10
-6.504
 11
-6.386
 20
-91.453
 21
-91.2
  0
LINE
  8
0
 10
-6.386
 11
-6.226
 20
-91.2
 21
-90.972
  0
LINE
  8
0
 10
-6.226
 11
-6.028
 20
-90.972
 21
-90.774
  0
LINE
  8
0
 10
-6.028
 11
-5.8
 20
-90.774
 21
-90.614
  0
LINE
  8
0
 10
-5.8
 11
-5.547
 20
-90.614
 21
-90.496
  0
LINE
  8
0
 10
-5.547
 11
-5.278
 20
-90.496
 21
-90.424
  0
LINE
  8
0
 10
-5.278
 11
-5
 20
-90.424
 21
-90.4
  0
LINE
  8
0
 10
-5
 11
-4.722
 20
-90.4
 21
-90.424
  0
LINE
  8
0
 10
-4.722
 11
-4.453
 20
-90.424
 21
-90.496
  0
LINE
  8
0
 10
-4.453
 11
-4.2
 20
-90.496
 21
-90.614
  0
LINE
  8
0
 10
-4.2
 11
-3.972
 20
-90.614
 21
-90.774
  0
LINE
  8
0
 10
-3.972
 11
-3.774
 20
-90.774
 21
-90.972
  0
LINE
  8
0
 10
-3.774
 11
-3.614
 20
-90.972
 21
-91.2
  0
LINE
  8
0
 10
-3.614
 11
-3.496
 20
-91.2
 21
-91.453
  0
LINE
  8
0
 10
-3.496
 11
-3.424
 20
-91.453
 21
-91.722
  0
LINE
  8
0
 10
-3.424
 11
-3.4
 20
-91.722
 21
-92
  0
LINE
  8
0
 10
-3.4
 11
-3.424
 20
-92
 21
-92.278
  0
LINE
  8
0
 10
-3.424
 11
-3.496
 20
-92.278
 21
-92.547
  0
LINE
  8
0
 10
-3.496
 11
-3.614
 20
-92.547
 21
-92.8
  0
LINE
  8
0
 10
-3.614
 11
-3.774
 20
-92.8
 21
-93.028
  0
LINE
  8
0
 10
-3.774
 11
-3.972
 20
-93.028
 21
-93.226
  0
LINE
  8
0
 10
-3.972
 11
-4.2
 20
-93.226
 21
-93.386
  0
LINE
  8
0
 10
-4.2
 11
-4.453
 20
-93.386
 21
-93.504
  0
LINE
  8
0
 10
-4.453
 11
-4.722
 20
-93.504
 21
-93.576
  0
LINE
  8
0
 10
-4.722
 11
-5
 20
-93.576
 21
-93.6
  0
LINE
  8
0
 10
-5
 11
-5.278
 20
-93.6
 21
-93.576
  0
LINE
  8
0
 10
-5.278
 11
-5.547
 20
-93.576
 21
-93.504
  0
LINE
  8
0
 10
-5.547
 11
-5.8
 20
-93.504
 21
-93.386
  0
LINE
  8
0
 10
-5.8
 11
-6.028
 20
-93.386
 21
-93.226
  0
LINE
  8
0
 10
-6.028
 11
-6.226
 20
-93.226
 21
-93.028
  0
LINE
  8
0
 10
-6.226
 11
-6.386
 20
-93.028
 21
-92.8
  0
LINE
  8
0
 10
-6.386
 11
-6.504
 20
-92.8
 21
-92.547
  0
LINE
  8
0
 10
-6.504
 11
-6.576
 20
-92.547
 21
-92.278
  0
LINE
  8
0
 10
-6.576
 11
-6.6
 20
-92.278
 21
-92
  0
LINE
  8
0
 10
3.4
 11
3.424
 20
-142.5
 21
-142.222
  0
LINE
  8
0
 10
3.424
 11
3.496
 20
-142.222
 21
-141.953
  0
LINE
  8
0
 10
3.496
 11
3.614
 20
-141.953
 21
-141.7
  0
LINE
  8
0
 10
3.614
 11
3.774
 20
-141.7
 21
-141.472
  0
LINE
  8
0
 10
3.774
 11
3.972
 20
-141.472
 21
-141.274
  0
LINE
  8
0
 10
3.972
 11
4.2
 20
-141.274
 21
-141.114
  0
LINE
  8
0
 10
4.2
 11
4.453
 20
-141.114
 21
-140.996
  0
LINE
  8
0
 10
4.453
 11
4.722
 20
-140.996
 21
-140.924
  0
LINE
  8
0
 10
4.722
 11
5
 20
-140.924
 21
-140.9
  0
LINE
  8
0
 10
5
 11
5.278
 20
-140.9
 21
-140.924
  0
LINE
  8
0
 10
5.278
 11
5.547
 20
-140.924
 21
-140.996
  0
LINE
  8
0
 10
5.547
 11
5.8
 20
-140.996
 21
-141.114
  0
LINE
  8
0
 10
5.8
 11
6.028
 20
-141.114
 21
-141.274
  0
LINE
  8
0
 10
6.028
 11
6.226
 20
-141.274
 21
-141.472
  0
LINE
  8
0
 10
6.226
 11
6.386
 20
-141.472
 21
-141.7
  0
LINE
  8
0
 10
6.386
 11
6.504
 20
-141.7
 21
-141.953
  0
LINE
  8
0
 10
6.504
 11
6.576
 20
-141.953
 21
-142.222
  0
LINE
  8
0
 10
6.576
 11
6.6
 20
-142.222
 21
-142.5
  0
LINE
  8
0
 10
6.6
 11
6.576
 20
-142.5
 21
-142.778
  0
LINE
  8
0
 10
6.576
 11
6.504
 20
-142.778
 21
-143.047
  0
LINE
  8
0
 10
6.504
 11
6.386
 20
-143.047
 21
-143.3
  0
LINE
  8
0
 10
6.386
 11
6.226
 20
-143.3
 21
-143.528
  0
LINE
  8
0
 10
6.226
 11
6.028
 20
-143.528
 21
-143.726
  0
LINE
  8
0
 10
6.028
 11
5.8
 20
-143.726
 21
-143.886
  0
LINE
  8
0
 10
5.8
 11
5.547
 20
-143.886
 21
-144.004
  0
LINE
  8
0
 10
5.547
 11
5.278
 20
-144.004
 21
-144.076
  0
LINE
  8
0
 10
5.278
 11
5
 20
-144.076
 21
-144.1
  0
LINE
  8
0
 10
5
 11
4.722
 20
-144.1
 21
-144.076
  0
LINE
  8
0
 10
4.722
 11
4.453
 20
-144.076
 21
-144.004
  0
LINE
  8
0
 10
4.453
 11
4.2
 20
-144.004
 21
-143.886
  0
LINE
  8
0
 10
4.2
 11
3.972
 20
-143.886
 21
-143.726
  0
LINE
  8
0
 10
3.972
 11
3.774
 20
-143.726
 21
-143.528
  0
LINE
  8
0
 10
3.774
 11
3.614
 20
-143.528
 21
-143.3
  0
LINE
  8
0
 10
3.614
 11
3.496
 20
-143.3
 21
-143.047
  0
LINE
  8
0
 10
3.496
 11
3.424
 20
-143.047
 21
-142.778
  0
LINE
  8
0
 10
3.424
 11
3.4
 20
-142.778
 21
-142.5
  0
LINE
  8
0
 10
3.4
 11
3.424
 20
-92
 21
-91.722
  0
LINE
  8
0
 10
3.424
 11
3.496
 20
-91.722
 21
-91.453
  0
LINE
  8
0
 10
3.496
 11
3.614
 20
-91.453
 21
-91.2
  0
LINE
  8
0
 10
3.614
 11
3.774
 20
-91.2
 21
-90.972
  0
LINE
  8
0
 10
3.774
 11
3.972
 20
-90.972
 21
-90.774
  0
LINE
  8
0
 10
3.972
 11
4.2
 20
-90.774
 21
-90.614
  0
LINE
  8
0
 10
4.2
 11
4.453
 20
-90.614
 21
-90.496
  0
LINE
  8
0
 10
4.453
 11
4.722
 20
-90.496
 21
-90.424
  0
LINE
  8
0
 10
4.722
 11
5
 20
-90.424
 21
-90.4
  0
LINE
  8
0
 10
5
 11
5.278
 20
-90.4
 21
-90.424
  0
LINE
  8
0
 10
5.278
 11
5.547
 20
-90.424
 21
-90.496
  0
LINE
  8
0
 10
5.547
 11
5.8
 20
-90.496
 21
-90.614
  0
LINE
  8
0
 10
5.8
 11
6.028
 20
-90.614
 21
-90.774
  0
LINE
  8
0
 10
6.028
 11
6.226
 20
-90.774
 21
-90.972
  0
LINE
  8
0
 10
6.226
 11
6.386
 20
-90.972
 21
-91.2
  0
LINE
  8
0
 10
6.386
 11
6.504
 20
-91.2
 21
-91.453
  0
LINE
  8
0
 10
6.504
 11
6.576
 20
-91.453
 21
-91.722
  0
LINE
  8
0
 10
6.576
 11
6.6
 20
-91.722
 21
-92
  0
LINE
  8
0
 10
6.6
 11
6.576
 20
-92
 21
-92.278
  0
LINE
  8
0
 10
6.576
 11
6.504
 20
-92.278
 21
-92.547
  0
LINE
  8
0
 10
6.504
 11
6.386
 20
-92.547
 21
-92.8
  0
LINE
  8
0
 10
6.386
 11
6.226
 20
-92.8
 21
-93.028
  0
LINE
  8
0
 10
6.226
 11
6.028
 20
-93.028
 21
-93.226
  0
LINE
  8
0
 10
6.028
 11
5.8
 20
-93.226
 21
-93.386
  0
LINE
  8
0
 10
5.8
 11
5.547
 20
-93.386
 21
-93.504
  0
LINE
  8
0
 10
5.547
 11
5.278
 20
-93.504
 21
-93.576
  0
LINE
  8
0
 10
5.278
 11
5
 20
-93.576
 21
-93.6
  0
LINE
  8
0
 10
5
 11
4.722
 20
-93.6
 21
-93.576
  0
LINE
  8
0
 10
4.722
 11
4.453
 20
-93.576
 21
-93.504
  0
LINE
  8
0
 10
4.453
 11
4.2
 20
-93.504
 21
-93.386
  0
LINE
  8
0
 10
4.2
 11
3.972
 20
-93.386
 21
-93.226
  0
LINE
  8
0
 10
3.972
 11
3.774
 20
-93.226
 21
-93.028
  0
LINE
  8
0
 10
3.774
 11
3.614
 20
-93.028
 21
-92.8
  0
LINE
  8
0
 10
3.614
 11
3.496
 20
-92.8
 21
-92.547
  0
LINE
  8
0
 10
3.496
 11
3.424
 20
-92.547
 21
-92.278
  0
LINE
  8
0
 10
3.424
 11
3.4
 20
-92.278
 21
-92
  0
LINE
  8
0
 10
6.847
 11
7.223
 20
132.065
 21
133.802
  0
LINE
  8
0
 10
7.223
 11
8.63
 20
133.802
 21
134.891
  0
LINE
  8
0
 10
8.63
 11
10.407
 20
134.891
 21
134.821
  0
LINE
  8
0
 10
10.407
 11
11.724
 20
134.821
 21
133.626
  0
LINE
  8
0
 10
11.724
 11
11.963
 20
133.626
 21
131.864
  0
LINE
  8
0
 10
11.963
 11
11.014
 20
131.864
 21
130.359
  0
LINE
  8
0
 10
11.014
 11
9.32
 20
130.359
 21
129.817
  0
LINE
  8
0
 10
9.32
 11
7.674
 20
129.817
 21
130.49
  0
LINE
  8
0
 10
7.674
 11
6.847
 20
130.49
 21
132.065
  0
LINE
  8
0
 10
25.614
 11
26.125
 20
130.789
 21
132.492
  0
LINE
  8
0
 10
26.125
 11
27.613
 20
132.492
 21
133.467
  0
LINE
  8
0
 10
27.613
 11
29.379
 20
133.467
 21
133.258
  0
LINE
  8
0
 10
29.379
 11
30.598
 20
133.258
 21
131.963
  0
LINE
  8
0
 10
30.598
 11
30.698
 20
131.963
 21
130.188
  0
LINE
  8
0
 10
30.698
 11
29.634
 20
130.188
 21
128.762
  0
LINE
  8
0
 10
29.634
 11
27.903
 20
128.762
 21
128.354
  0
LINE
  8
0
 10
27.903
 11
26.315
 20
128.354
 21
129.155
  0
LINE
  8
0
 10
26.315
 11
25.614
 20
129.155
 21
130.789
  0
LINE
  8
0
 10
44.223
 11
44.867
 20
128.046
 21
129.703
  0
LINE
  8
0
 10
44.867
 11
46.426
 20
129.703
 21
130.558
  0
LINE
  8
0
 10
46.426
 11
48.17
 20
130.558
 21
130.211
  0
LINE
  8
0
 10
48.17
 11
49.284
 20
130.211
 21
128.824
  0
LINE
  8
0
 10
49.284
 11
49.245
 20
128.824
 21
127.047
  0
LINE
  8
0
 10
49.245
 11
48.072
 20
127.047
 21
125.709
  0
LINE
  8
0
 10
48.072
 11
46.314
 20
125.709
 21
125.438
  0
LINE
  8
0
 10
46.314
 11
44.794
 20
125.438
 21
126.361
  0
LINE
  8
0
 10
44.794
 11
44.223
 20
126.361
 21
128.046
  0
LINE
  8
0
 10
62.559
 11
63.331
 20
123.85
 21
125.452
  0
LINE
  8
0
 10
63.331
 11
64.953
 20
125.452
 21
126.182
  0
LINE
  8
0
 10
64.953
 11
66.664
 20
126.182
 21
125.699
  0
LINE
  8
0
 10
66.664
 11
67.666
 20
125.699
 21
124.229
  0
LINE
  8
0
 10
67.666
 11
67.487
 20
124.229
 21
122.46
  0
LINE
  8
0
 10
67.487
 11
66.213
 20
122.46
 21
121.218
  0
LINE
  8
0
 10
66.213
 11
64.44
 20
121.218
 21
121.087
  0
LINE
  8
0
 10
64.44
 11
62.997
 20
121.087
 21
122.126
  0
LINE
  8
0
 10
62.997
 11
62.559
 20
122.126
 21
123.85
  0
LINE
  8
0
 10
80.51
 11
81.405
 20
118.229
 21
119.765
  0
LINE
  8
0
 10
81.405
 11
83.08
 20
119.765
 21
120.366
  0
LINE
  8
0
 10
83.08
 11
84.748
 20
120.366
 21
119.75
  0
LINE
  8
0
 10
84.748
 11
85.631
 20
119.75
 21
118.206
  0
LINE
  8
0
 10
85.631
 11
85.314
 20
118.206
 21
116.457
  0
LINE
  8
0
 10
85.314
 11
83.946
 20
116.457
 21
115.319
  0
LINE
  8
0
 10
83.946
 11
82.168
 20
115.319
 21
115.327
  0
LINE
  8
0
 10
82.168
 11
80.811
 20
115.327
 21
116.475
  0
LINE
  8
0
 10
80.811
 11
80.51
 20
116.475
 21
118.229
  0
LINE
  8
0
 10
97.965
 11
98.977
 20
111.217
 21
112.678
  0
LINE
  8
0
 10
98.977
 11
100.694
 20
112.678
 21
113.145
  0
LINE
  8
0
 10
100.694
 11
102.308
 20
113.145
 21
112.401
  0
LINE
  8
0
 10
102.308
 11
103.068
 20
112.401
 21
110.792
  0
LINE
  8
0
 10
103.068
 11
102.614
 20
110.792
 21
109.073
  0
LINE
  8
0
 10
102.614
 11
101.162
 20
109.073
 21
108.046
  0
LINE
  8
0
 10
101.162
 11
99.39
 20
108.046
 21
108.193
  0
LINE
  8
0
 10
99.39
 11
98.127
 20
108.193
 21
109.445
  0
LINE
  8
0
 10
98.127
 11
97.965
 20
109.445
 21
111.217
  0
LINE
  8
0
 10
114.815
 11
115.939
 20
102.856
 21
104.234
  0
LINE
  8
0
 10
115.939
 11
117.687
 20
104.234
 21
104.565
  0
LINE
  8
0
 10
117.687
 11
119.238
 20
104.565
 21
103.696
  0
LINE
  8
0
 10
119.238
 11
119.869
 20
103.696
 21
102.033
  0
LINE
  8
0
 10
119.869
 11
119.282
 20
102.033
 21
100.355
  0
LINE
  8
0
 10
119.282
 11
117.754
 20
100.355
 21
99.445
  0
LINE
  8
0
 10
117.754
 11
115.999
 20
99.445
 21
99.731
  0
LINE
  8
0
 10
115.999
 11
114.838
 20
99.731
 21
101.078
  0
LINE
  8
0
 10
114.838
 11
114.815
 20
101.078
 21
102.856
  0
LINE
  8
0
 10
130.841
 11
130.958
 20
91.425
 21
93.2
  0
LINE
  8
0
 10
130.958
 11
132.187
 20
93.2
 21
94.485
  0
LINE
  8
0
 10
132.187
 11
133.955
 20
94.485
 21
94.678
  0
LINE
  8
0
 10
133.955
 11
135.433
 20
94.678
 21
93.69
  0
LINE
  8
0
 10
135.433
 11
135.932
 20
93.69
 21
91.982
  0
LINE
  8
0
 10
135.932
 11
135.215
 20
91.982
 21
90.355
  0
LINE
  8
0
 10
135.215
 11
133.62
 20
90.355
 21
89.568
  0
LINE
  8
0
 10
133.62
 11
131.892
 20
89.568
 21
89.991
  0
LINE
  8
0
 10
131.892
 11
130.841
 20
89.991
 21
91.425
  0
LINE
  8
0
 10
146.037
 11
146.293
 20
80.546
 21
82.307
  0
LINE
  8
0
 10
146.293
 11
147.619
 20
82.307
 21
83.491
  0
LINE
  8
0
 10
147.619
 11
149.397
 20
83.491
 21
83.545
  0
LINE
  8
0
 10
149.397
 11
150.793
 20
83.545
 21
82.444
  0
LINE
  8
0
 10
150.793
 11
151.156
 20
82.444
 21
80.703
  0
LINE
  8
0
 10
151.156
 11
150.314
 20
80.703
 21
79.137
  0
LINE
  8
0
 10
150.314
 11
148.662
 20
79.137
 21
78.477
  0
LINE
  8
0
 10
148.662
 11
146.973
 20
78.477
 21
79.034
  0
LINE
  8
0
 10
146.973
 11
146.037
 20
79.034
 21
80.546
  0
LINE
  8
0
 10
160.333
 11
160.726
 20
68.509
 21
70.244
  0
LINE
  8
0
 10
160.726
 11
162.141
 20
70.244
 21
71.321
  0
LINE
  8
0
 10
162.141
 11
163.918
 20
71.321
 21
71.235
  0
LINE
  8
0
 10
163.918
 11
165.223
 20
71.235
 21
70.028
  0
LINE
  8
0
 10
165.223
 11
165.448
 20
70.028
 21
68.263
  0
LINE
  8
0
 10
165.448
 11
164.486
 20
68.263
 21
66.768
  0
LINE
  8
0
 10
164.486
 11
162.787
 20
66.768
 21
66.24
  0
LINE
  8
0
 10
162.787
 11
161.147
 20
66.24
 21
66.928
  0
LINE
  8
0
 10
161.147
 11
160.333
 20
66.928
 21
68.509
  0
LINE
  8
0
 10
164.928
 11
164.928
 20
88.254
 21
90.146
  0
LINE
  8
0
 10
164.928
 11
165.611
 20
90.146
 21
91.911
  0
LINE
  8
0
 10
165.611
 11
166.886
 20
91.911
 21
93.31
  0
LINE
  8
0
 10
166.886
 11
168.581
 20
93.31
 21
94.153
  0
LINE
  8
0
 10
168.581
 11
170.465
 20
94.153
 21
94.328
  0
LINE
  8
0
 10
170.465
 11
172.286
 20
94.328
 21
93.81
  0
LINE
  8
0
 10
172.286
 11
173.796
 20
93.81
 21
92.67
  0
LINE
  8
0
 10
173.796
 11
174.792
 20
92.67
 21
91.06
  0
LINE
  8
0
 10
174.792
 11
175.14
 20
91.06
 21
89.2
  0
LINE
  8
0
 10
175.14
 11
174.792
 20
89.2
 21
87.34
  0
LINE
  8
0
 10
174.792
 11
173.796
 20
87.34
 21
85.73
  0
LINE
  8
0
 10
173.796
 11
172.286
 20
85.73
 21
84.59
  0
LINE
  8
0
 10
172.286
 11
170.89
 20
84.59
 21
84.193
  0
LINE
  8
0
 10
170.89
 11
170.89
 20
84.193
 21
83.05
  0
LINE
  8
0
 10
170.89
 11
169.09
 20
83.05
 21
83.05
  0
LINE
  8
0
 10
169.09
 11
169.09
 20
83.05
 21
84.2
  0
LINE
  8
0
 10
169.09
 11
168.581
 20
84.2
 21
84.247
  0
LINE
  8
0
 10
168.581
 11
166.886
 20
84.247
 21
85.09
  0
LINE
  8
0
 10
166.886
 11
165.611
 20
85.09
 21
86.489
  0
LINE
  8
0
 10
165.611
 11
164.928
 20
86.489
 21
88.254
  0
LINE
  8
0
 10
173.64
 11
174.168
 20
55.387
 21
57.086
  0
LINE
  8
0
 10
174.168
 11
175.663
 20
57.086
 21
58.048
  0
LINE
  8
0
 10
175.663
 11
177.428
 20
58.048
 21
57.823
  0
LINE
  8
0
 10
177.428
 11
178.635
 20
57.823
 21
56.518
  0
LINE
  8
0
 10
178.635
 11
178.721
 20
56.518
 21
54.741
  0
LINE
  8
0
 10
178.721
 11
177.644
 20
54.741
 21
53.326
  0
LINE
  8
0
 10
177.644
 11
175.909
 20
53.326
 21
52.933
  0
LINE
  8
0
 10
175.909
 11
174.328
 20
52.933
 21
53.747
  0
LINE
  8
0
 10
174.328
 11
173.64
 20
53.747
 21
55.387
  0
LINE
  8
0
 10
185.877
 11
186.537
 20
41.262
 21
42.914
  0
LINE
  8
0
 10
186.537
 11
188.103
 20
42.914
 21
43.756
  0
LINE
  8
0
 10
188.103
 11
189.844
 20
43.756
 21
43.393
  0
LINE
  8
0
 10
189.844
 11
190.945
 20
43.393
 21
41.997
  0
LINE
  8
0
 10
190.945
 11
190.891
 20
41.997
 21
40.219
  0
LINE
  8
0
 10
190.891
 11
189.707
 20
40.219
 21
38.893
  0
LINE
  8
0
 10
189.707
 11
187.946
 20
38.893
 21
38.637
  0
LINE
  8
0
 10
187.946
 11
186.434
 20
38.637
 21
39.573
  0
LINE
  8
0
 10
186.434
 11
185.877
 20
39.573
 21
41.262
  0
LINE
  8
0
 10
189.928
 11
189.928
 20
88.254
 21
90.146
  0
LINE
  8
0
 10
189.928
 11
190.611
 20
90.146
 21
91.911
  0
LINE
  8
0
 10
190.611
 11
191.886
 20
91.911
 21
93.31
  0
LINE
  8
0
 10
191.886
 11
193.581
 20
93.31
 21
94.153
  0
LINE
  8
0
 10
193.581
 11
195.465
 20
94.153
 21
94.328
  0
LINE
  8
0
 10
195.465
 11
197.286
 20
94.328
 21
93.81
  0
LINE
  8
0
 10
197.286
 11
198.796
 20
93.81
 21
92.67
  0
LINE
  8
0
 10
198.796
 11
199.792
 20
92.67
 21
91.06
  0
LINE
  8
0
 10
199.792
 11
200.14
 20
91.06
 21
89.2
  0
LINE
  8
0
 10
200.14
 11
199.792
 20
89.2
 21
87.34
  0
LINE
  8
0
 10
199.792
 11
198.796
 20
87.34
 21
85.73
  0
LINE
  8
0
 10
198.796
 11
197.286
 20
85.73
 21
84.59
  0
LINE
  8
0
 10
197.286
 11
195.89
 20
84.59
 21
84.193
  0
LINE
  8
0
 10
195.89
 11
195.89
 20
84.193
 21
83.05
  0
LINE
  8
0
 10
195.89
 11
194.09
 20
83.05
 21
83.05
  0
LINE
  8
0
 10
194.09
 11
194.09
 20
83.05
 21
84.2
  0
LINE
  8
0
 10
194.09
 11
193.581
 20
84.2
 21
84.247
  0
LINE
  8
0
 10
193.581
 11
191.886
 20
84.247
 21
85.09
  0
LINE
  8
0
 10
191.886
 11
190.611
 20
85.09
 21
86.489
  0
LINE
  8
0
 10
190.611
 11
189.928
 20
86.489
 21
88.254
  0
LINE
  8
0
 10
196.968
 11
197.755
 20
26.22
 21
27.815
  0
LINE
  8
0
 10
197.755
 11
199.382
 20
27.815
 21
28.532
  0
LINE
  8
0
 10
199.382
 11
201.09
 20
28.532
 21
28.033
  0
LINE
  8
0
 10
201.09
 11
202.078
 20
28.033
 21
26.555
  0
LINE
  8
0
 10
202.078
 11
201.885
 20
26.555
 21
24.787
  0
LINE
  8
0
 10
201.885
 11
200.6
 20
24.787
 21
23.558
  0
LINE
  8
0
 10
200.6
 11
198.825
 20
23.558
 21
23.441
  0
LINE
  8
0
 10
198.825
 11
197.391
 20
23.441
 21
24.492
  0
LINE
  8
0
 10
197.391
 11
196.968
 20
24.492
 21
26.22
  0
LINE
  8
0
 10
206.845
 11
207.755
 20
10.354
 21
11.882
  0
LINE
  8
0
 10
207.755
 11
209.433
 20
11.882
 21
12.469
  0
LINE
  8
0
 10
209.433
 11
211.096
 20
12.469
 21
11.838
  0
LINE
  8
0
 10
211.096
 11
211.965
 20
11.838
 21
10.287
  0
LINE
  8
0
 10
211.965
 11
211.634
 20
10.287
 21
8.539
  0
LINE
  8
0
 10
211.634
 11
210.256
 20
8.539
 21
7.415
  0
LINE
  8
0
 10
210.256
 11
208.478
 20
7.415
 21
7.438
  0
LINE
  8
0
 10
208.478
 11
207.131
 20
7.438
 21
8.599
  0
LINE
  8
0
 10
207.131
 11
206.845
 20
8.599
 21
10.354
  0
LINE
  8
0
 10
215.446
 11
216.473
 20
-6.238
 21
-4.786
  0
LINE
  8
0
 10
216.473
 11
218.192
 20
-4.786
 21
-4.332
  0
LINE
  8
0
 10
218.192
 11
219.801
 20
-4.332
 21
-5.092
  0
LINE
  8
0
 10
219.801
 11
220.545
 20
-5.092
 21
-6.706
  0
LINE
  8
0
 10
220.545
 11
220.078
 20
-6.706
 21
-8.423
  0
LINE
  8
0
 10
220.078
 11
218.617
 20
-8.423
 21
-9.435
  0
LINE
  8
0
 10
218.617
 11
216.845
 20
-9.435
 21
-9.273
  0
LINE
  8
0
 10
216.845
 11
215.593
 20
-9.273
 21
-8.01
  0
LINE
  8
0
 10
215.593
 11
215.446
 20
-8.01
 21
-6.238
  0
LINE
  8
0
 10
222.719
 11
223.857
 20
-23.454
 21
-22.086
  0
LINE
  8
0
 10
223.857
 11
225.606
 20
-22.086
 21
-21.769
  0
LINE
  8
0
 10
225.606
 11
227.15
 20
-21.769
 21
-22.652
  0
LINE
  8
0
 10
227.15
 11
227.766
 20
-22.652
 21
-24.32
  0
LINE
  8
0
 10
227.766
 11
227.165
 20
-24.32
 21
-25.995
  0
LINE
  8
0
 10
227.165
 11
225.629
 20
-25.995
 21
-26.89
  0
LINE
  8
0
 10
225.629
 11
223.875
 20
-26.89
 21
-26.589
  0
LINE
  8
0
 10
223.875
 11
222.727
 20
-26.589
 21
-25.232
  0
LINE
  8
0
 10
222.727
 11
222.719
 20
-25.232
 21
-23.454
  0
LINE
  8
0
 10
224.479
 11
224.479
 20
42.84
 21
44.44
  0
LINE
  8
0
 10
224.479
 11
225.865
 20
44.44
 21
45.24
  0
LINE
  8
0
 10
225.865
 11
227.251
 20
45.24
 21
44.44
  0
LINE
  8
0
 10
227.251
 11
227.251
 20
44.44
 21
42.84
  0
LINE
  8
0
 10
227.251
 11
225.865
 20
42.84
 21
42.04
  0
LINE
  8
0
 10
225.865
 11
224.479
 20
42.04
 21
42.84
  0
LINE
  8
0
 10
224.479
 11
224.479
 20
117.77
 21
119.37
  0
LINE
  8
0
 10
224.479
 11
225.865
 20
119.37
 21
120.17
  0
LINE
  8
0
 10
225.865
 11
227.251
 20
120.17
 21
119.37
  0
LINE
  8
0
 10
227.251
 11
227.251
 20
119.37
 21
117.77
  0
LINE
  8
0
 10
227.251
 11
225.865
 20
117.77
 21
116.97
  0
LINE
  8
0
 10
225.865
 11
224.479
 20
116.97
 21
117.77
  0
LINE
  8
0
 10
228.487
 11
228.618
 20
-42.96
 21
-41.187
  0
LINE
  8
0
 10
228.618
 11
229.86
 20
-41.187
 21
-39.913
  0
LINE
  8
0
 10
229.86
 11
231.629
 20
-39.913
 21
-39.734
  0
LINE
  8
0
 10
231.629
 11
233.099
 20
-39.734
 21
-40.736
  0
LINE
  8
0
 10
233.099
 11
233.582
 20
-40.736
 21
-42.447
  0
LINE
  8
0
 10
233.582
 11
232.852
 20
-42.447
 21
-44.069
  0
LINE
  8
0
 10
232.852
 11
231.25
 20
-44.069
 21
-44.841
  0
LINE
  8
0
 10
231.25
 11
229.526
 20
-44.841
 21
-44.403
  0
LINE
  8
0
 10
229.526
 11
228.487
 20
-44.403
 21
-42.96
  0
LINE
  8
0
 10
232.838
 11
233.109
 20
-61.086
 21
-59.328
  0
LINE
  8
0
 10
233.109
 11
234.447
 20
-59.328
 21
-58.155
  0
LINE
  8
0
 10
234.447
 11
236.224
 20
-58.155
 21
-58.116
  0
LINE
  8
0
 10
236.224
 11
237.611
 20
-58.116
 21
-59.23
  0
LINE
  8
0
 10
237.611
 11
237.958
 20
-59.23
 21
-60.974
  0
LINE
  8
0
 10
237.958
 11
237.103
 20
-60.974
 21
-62.533
  0
LINE
  8
0
 10
237.103
 11
235.446
 20
-62.533
 21
-63.177
  0
LINE
  8
0
 10
235.446
 11
233.761
 20
-63.177
 21
-62.606
  0
LINE
  8
0
 10
233.761
 11
232.838
 20
-62.606
 21
-61.086
  0
LINE
  8
0
 10
235.754
 11
236.162
 20
-79.497
 21
-77.766
  0
LINE
  8
0
 10
236.162
 11
237.588
 20
-77.766
 21
-76.702
  0
LINE
  8
0
 10
237.588
 11
239.363
 20
-76.702
 21
-76.802
  0
LINE
  8
0
 10
239.363
 11
240.658
 20
-76.802
 21
-78.021
  0
LINE
  8
0
 10
240.658
 11
240.867
 20
-78.021
 21
-79.787
  0
LINE
  8
0
 10
240.867
 11
239.892
 20
-79.787
 21
-81.275
  0
LINE
  8
0
 10
239.892
 11
238.189
 20
-81.275
 21
-81.786
  0
LINE
  8
0
 10
238.189
 11
236.555
 20
-81.786
 21
-81.085
  0
LINE
  8
0
 10
236.555
 11
235.754
 20
-81.085
 21
-79.497
  0
LINE
  8
0
 10
237.217
 11
237.759
 20
-98.08
 21
-96.386
  0
LINE
  8
0
 10
237.759
 11
239.264
 20
-96.386
 21
-95.437
  0
LINE
  8
0
 10
239.264
 11
241.026
 20
-95.437
 21
-95.676
  0
LINE
  8
0
 10
241.026
 11
242.221
 20
-95.676
 21
-96.993
  0
LINE
  8
0
 10
242.221
 11
242.291
 20
-96.993
 21
-98.77
  0
LINE
  8
0
 10
242.291
 11
241.202
 20
-98.77
 21
-100.177
  0
LINE
  8
0
 10
241.202
 11
239.465
 20
-100.177
 21
-100.553
  0
LINE
  8
0
 10
239.465
 11
237.89
 20
-100.553
 21
-99.726
  0
LINE
  8
0
 10
237.89
 11
237.217
 20
-99.726
 21
-98.08
  0
LINE
  8
0
 10
239.719
 11
239.719
 20
93.64
 21
95.24
  0
LINE
  8
0
 10
239.719
 11
241.105
 20
95.24
 21
96.04
  0
LINE
  8
0
 10
241.105
 11
242.491
 20
96.04
 21
95.24
  0
LINE
  8
0
 10
242.491
 11
242.491
 20
95.24
 21
93.64
  0
LINE
  8
0
 10
242.491
 11
241.105
 20
93.64
 21
92.84
  0
LINE
  8
0
 10
241.105
 11
239.719
 20
92.84
 21
93.64
  0
LINE
  8
0
 10
267.659
 11
267.659
 20
93.64
 21
95.24
  0
LINE
  8
0
 10
267.659
 11
269.045
 20
95.24
 21
96.04
  0
LINE
  8
0
 10
269.045
 11
270.431
 20
96.04
 21
95.24
  0
LINE
  8
0
 10
270.431
 11
270.431
 20
95.24
 21
93.64
  0
LINE
  8
0
 10
270.431
 11
269.045
 20
93.64
 21
92.84
  0
LINE
  8
0
 10
269.045
 11
267.659
 20
92.84
 21
93.64
  0
LINE
  8
0
 10
272.739
 11
272.739
 20
41.57
 21
43.17
  0
LINE
  8
0
 10
272.739
 11
274.125
 20
43.17
 21
43.97
  0
LINE
  8
0
 10
274.125
 11
275.511
 20
43.97
 21
43.17
  0
LINE
  8
0
 10
275.511
 11
275.511
 20
43.17
 21
41.57
  0
LINE
  8
0
 10
275.511
 11
274.125
 20
41.57
 21
40.77
  0
LINE
  8
0
 10
274.125
 11
272.739
 20
40.77
 21
41.57
  0
LINE
  8
0
 10
272.739
 11
272.739
 20
124.12
 21
125.72
  0
LINE
  8
0
 10
272.739
 11
274.125
 20
125.72
 21
126.52
  0
LINE
  8
0
 10
274.125
 11
275.511
 20
126.52
 21
125.72
  0
LINE
  8
0
 10
275.511
 11
275.511
 20
125.72
 21
124.12
  0
LINE
  8
0
 10
275.511
 11
274.125
 20
124.12
 21
123.32
  0
LINE
  8
0
 10
274.125
 11
272.739
 20
123.32
 21
124.12
  0
LINE
  8
0
 10
287.5
 11
288.232
 20
-140
 21
-138.232
  0
LINE
  8
0
 10
288.232
 11
290
 20
-138.232
 21
-137.5
  0
LINE
  8
0
 10
290
 11
291.768
 20
-137.5
 21
-138.232
  0
LINE
  8
0
 10
291.768
 11
292.5
 20
-138.232
 21
-140
  0
LINE
  8
0
 10
292.5
 11
291.768
 20
-140
 21
-141.768
  0
LINE
  8
0
 10
291.768
 11
290
 20
-141.768
 21
-142.5
  0
LINE
  8
0
 10
290
 11
288.232
 20
-142.5
 21
-141.768
  0
LINE
  8
0
 10
288.232
 11
287.5
 20
-141.768
 21
-140
  0
LINE
  8
0
 10
287.5
 11
288.232
 20
140
 21
141.768
  0
LINE
  8
0
 10
288.232
 11
290
 20
141.768
 21
142.5
  0
LINE
  8
0
 10
290
 11
291.768
 20
142.5
 21
141.768
  0
LINE
  8
0
 10
291.768
 11
292.5
 20
141.768
 21
140
  0
LINE
  8
0
 10
292.5
 11
291.768
 20
140
 21
138.232
  0
LINE
  8
0
 10
291.768
 11
290
 20
138.232
 21
137.5
  0
LINE
  8
0
 10
290
 11
288.232
 20
137.5
 21
138.232
  0
LINE
  8
0
 10
288.232
 11
287.5
 20
138.232
 21
140
  0
ENDSEC
  0
SECTION
  2
OBJECTS
  0
DICTIONARY
  0
ENDSEC
  0
EOF
