  0
SECTION
  2
BLOCKS
  0
ENDSEC
  0
SECTION
  2
ENTITIES
  0
LINE
  8
0
 10
-17.5
 11
-1.5
 20
0
 21
240
  0
LINE
  8
0
 10
-1.5
 11
1.5
 20
240
 21
240
  0
LINE
  8
0
 10
1.5
 11
17.5
 20
240
 21
0
  0
LINE
  8
0
 10
17.5
 11
-17.5
 20
0
 21
0
  0
LINE
  8
0
 10
-6.897
 11
-6.897
 20
9.557
 21
9.837
  0
LINE
  8
0
 10
-6.897
 11
-6.849
 20
9.837
 21
10.111
  0
LINE
  8
0
 10
-6.849
 11
-6.754
 20
10.111
 21
10.373
  0
LINE
  8
0
 10
-6.754
 11
-6.614
 20
10.373
 21
10.615
  0
LINE
  8
0
 10
-6.614
 11
-6.435
 20
10.615
 21
10.828
  0
LINE
  8
0
 10
-6.435
 11
-6.221
 20
10.828
 21
11.008
  0
LINE
  8
0
 10
-6.221
 11
-5.98
 20
11.008
 21
11.147
  0
LINE
  8
0
 10
-5.98
 11
-5.718
 20
11.147
 21
11.242
  0
LINE
  8
0
 10
-5.718
 11
-5.443
 20
11.242
 21
11.291
  0
LINE
  8
0
 10
-5.443
 11
-5.163
 20
11.291
 21
11.291
  0
LINE
  8
0
 10
-5.163
 11
-4.889
 20
11.291
 21
11.242
  0
LINE
  8
0
 10
-4.889
 11
-4.627
 20
11.242
 21
11.147
  0
LINE
  8
0
 10
-4.627
 11
-4.385
 20
11.147
 21
11.008
  0
LINE
  8
0
 10
-4.385
 11
-4.172
 20
11.008
 21
10.828
  0
LINE
  8
0
 10
-4.172
 11
-3.992
 20
10.828
 21
10.615
  0
LINE
  8
0
 10
-3.992
 11
-3.853
 20
10.615
 21
10.373
  0
LINE
  8
0
 10
-3.853
 11
-3.758
 20
10.373
 21
10.111
  0
LINE
  8
0
 10
-3.758
 11
-3.709
 20
10.111
 21
9.837
  0
LINE
  8
0
 10
-3.709
 11
-3.709
 20
9.837
 21
9.557
  0
LINE
  8
0
 10
-3.709
 11
-3.758
 20
9.557
 21
9.282
  0
LINE
  8
0
 10
-3.758
 11
-3.853
 20
9.282
 21
9.02
  0
LINE
  8
0
 10
-3.853
 11
-3.992
 20
9.02
 21
8.779
  0
LINE
  8
0
 10
-3.992
 11
-4.172
 20
8.779
 21
8.565
  0
LINE
  8
0
 10
-4.172
 11
-4.385
 20
8.565
 21
8.386
  0
LINE
  8
0
 10
-4.385
 11
-4.627
 20
8.386
 21
8.246
  0
LINE
  8
0
 10
-4.627
 11
-4.889
 20
8.246
 21
8.151
  0
LINE
  8
0
 10
-4.889
 11
-5.163
 20
8.151
 21
8.103
  0
LINE
  8
0
 10
-5.163
 11
-5.443
 20
8.103
 21
8.103
  0
LINE
  8
0
 10
-5.443
 11
-5.718
 20
8.103
 21
8.151
  0
LINE
  8
0
 10
-5.718
 11
-5.98
 20
8.151
 21
8.246
  0
LINE
  8
0
 10
-5.98
 11
-6.221
 20
8.246
 21
8.386
  0
LINE
  8
0
 10
-6.221
 11
-6.435
 20
8.386
 21
8.565
  0
LINE
  8
0
 10
-6.435
 11
-6.614
 20
8.565
 21
8.779
  0
LINE
  8
0
 10
-6.614
 11
-6.754
 20
8.779
 21
9.02
  0
LINE
  8
0
 10
-6.754
 11
-6.849
 20
9.02
 21
9.282
  0
LINE
  8
0
 10
-6.849
 11
-6.897
 20
9.282
 21
9.557
  0
LINE
  8
0
 10
-6.897
 11
-6.897
 20
20.163
 21
20.443
  0
LINE
  8
0
 10
-6.897
 11
-6.849
 20
20.443
 21
20.718
  0
LINE
  8
0
 10
-6.849
 11
-6.754
 20
20.718
 21
20.98
  0
LINE
  8
0
 10
-6.754
 11
-6.614
 20
20.98
 21
21.221
  0
LINE
  8
0
 10
-6.614
 11
-6.435
 20
21.221
 21
21.435
  0
LINE
  8
0
 10
-6.435
 11
-6.221
 20
21.435
 21
21.614
  0
LINE
  8
0
 10
-6.221
 11
-5.98
 20
21.614
 21
21.754
  0
LINE
  8
0
 10
-5.98
 11
-5.718
 20
21.754
 21
21.849
  0
LINE
  8
0
 10
-5.718
 11
-5.443
 20
21.849
 21
21.897
  0
LINE
  8
0
 10
-5.443
 11
-5.163
 20
21.897
 21
21.897
  0
LINE
  8
0
 10
-5.163
 11
-4.889
 20
21.897
 21
21.849
  0
LINE
  8
0
 10
-4.889
 11
-4.627
 20
21.849
 21
21.754
  0
LINE
  8
0
 10
-4.627
 11
-4.385
 20
21.754
 21
21.614
  0
LINE
  8
0
 10
-4.385
 11
-4.172
 20
21.614
 21
21.435
  0
LINE
  8
0
 10
-4.172
 11
-3.992
 20
21.435
 21
21.221
  0
LINE
  8
0
 10
-3.992
 11
-3.853
 20
21.221
 21
20.98
  0
LINE
  8
0
 10
-3.853
 11
-3.758
 20
20.98
 21
20.718
  0
LINE
  8
0
 10
-3.758
 11
-3.709
 20
20.718
 21
20.443
  0
LINE
  8
0
 10
-3.709
 11
-3.709
 20
20.443
 21
20.163
  0
LINE
  8
0
 10
-3.709
 11
-3.758
 20
20.163
 21
19.889
  0
LINE
  8
0
 10
-3.758
 11
-3.853
 20
19.889
 21
19.627
  0
LINE
  8
0
 10
-3.853
 11
-3.992
 20
19.627
 21
19.385
  0
LINE
  8
0
 10
-3.992
 11
-4.172
 20
19.385
 21
19.172
  0
LINE
  8
0
 10
-4.172
 11
-4.385
 20
19.172
 21
18.992
  0
LINE
  8
0
 10
-4.385
 11
-4.627
 20
18.992
 21
18.853
  0
LINE
  8
0
 10
-4.627
 11
-4.889
 20
18.853
 21
18.758
  0
LINE
  8
0
 10
-4.889
 11
-5.163
 20
18.758
 21
18.709
  0
LINE
  8
0
 10
-5.163
 11
-5.443
 20
18.709
 21
18.709
  0
LINE
  8
0
 10
-5.443
 11
-5.718
 20
18.709
 21
18.758
  0
LINE
  8
0
 10
-5.718
 11
-5.98
 20
18.758
 21
18.853
  0
LINE
  8
0
 10
-5.98
 11
-6.221
 20
18.853
 21
18.992
  0
LINE
  8
0
 10
-6.221
 11
-6.435
 20
18.992
 21
19.172
  0
LINE
  8
0
 10
-6.435
 11
-6.614
 20
19.172
 21
19.385
  0
LINE
  8
0
 10
-6.614
 11
-6.754
 20
19.385
 21
19.627
  0
LINE
  8
0
 10
-6.754
 11
-6.849
 20
19.627
 21
19.889
  0
LINE
  8
0
 10
-6.849
 11
-6.897
 20
19.889
 21
20.163
  0
LINE
  8
0
 10
-1.5
 11
-1.477
 20
15
 21
15.26
  0
LINE
  8
0
 10
-1.477
 11
-1.41
 20
15.26
 21
15.513
  0
LINE
  8
0
 10
-1.41
 11
-1.299
 20
15.513
 21
15.75
  0
LINE
  8
0
 10
-1.299
 11
-1.149
 20
15.75
 21
15.964
  0
LINE
  8
0
 10
-1.149
 11
-0.964
 20
15.964
 21
16.149
  0
LINE
  8
0
 10
-0.964
 11
-0.75
 20
16.149
 21
16.299
  0
LINE
  8
0
 10
-0.75
 11
-0.513
 20
16.299
 21
16.41
  0
LINE
  8
0
 10
-0.513
 11
-0.26
 20
16.41
 21
16.477
  0
LINE
  8
0
 10
-0.26
 11
0
 20
16.477
 21
16.5
  0
LINE
  8
0
 10
0
 11
0.26
 20
16.5
 21
16.477
  0
LINE
  8
0
 10
0.26
 11
0.513
 20
16.477
 21
16.41
  0
LINE
  8
0
 10
0.513
 11
0.75
 20
16.41
 21
16.299
  0
LINE
  8
0
 10
0.75
 11
0.964
 20
16.299
 21
16.149
  0
LINE
  8
0
 10
0.964
 11
1.149
 20
16.149
 21
15.964
  0
LINE
  8
0
 10
1.149
 11
1.299
 20
15.964
 21
15.75
  0
LINE
  8
0
 10
1.299
 11
1.41
 20
15.75
 21
15.513
  0
LINE
  8
0
 10
1.41
 11
1.477
 20
15.513
 21
15.26
  0
LINE
  8
0
 10
1.477
 11
1.5
 20
15.26
 21
15
  0
LINE
  8
0
 10
1.5
 11
1.477
 20
15
 21
14.74
  0
LINE
  8
0
 10
1.477
 11
1.41
 20
14.74
 21
14.487
  0
LINE
  8
0
 10
1.41
 11
1.299
 20
14.487
 21
14.25
  0
LINE
  8
0
 10
1.299
 11
1.149
 20
14.25
 21
14.036
  0
LINE
  8
0
 10
1.149
 11
0.964
 20
14.036
 21
13.851
  0
LINE
  8
0
 10
0.964
 11
0.75
 20
13.851
 21
13.701
  0
LINE
  8
0
 10
0.75
 11
0.513
 20
13.701
 21
13.59
  0
LINE
  8
0
 10
0.513
 11
0.26
 20
13.59
 21
13.523
  0
LINE
  8
0
 10
0.26
 11
0
 20
13.523
 21
13.5
  0
LINE
  8
0
 10
0
 11
-0.26
 20
13.5
 21
13.523
  0
LINE
  8
0
 10
-0.26
 11
-0.513
 20
13.523
 21
13.59
  0
LINE
  8
0
 10
-0.513
 11
-0.75
 20
13.59
 21
13.701
  0
LINE
  8
0
 10
-0.75
 11
-0.964
 20
13.701
 21
13.851
  0
LINE
  8
0
 10
-0.964
 11
-1.149
 20
13.851
 21
14.036
  0
LINE
  8
0
 10
-1.149
 11
-1.299
 20
14.036
 21
14.25
  0
LINE
  8
0
 10
-1.299
 11
-1.41
 20
14.25
 21
14.487
  0
LINE
  8
0
 10
-1.41
 11
-1.477
 20
14.487
 21
14.74
  0
LINE
  8
0
 10
-1.477
 11
-1.5
 20
14.74
 21
15
  0
LINE
  8
0
 10
3.709
 11
3.709
 20
9.557
 21
9.837
  0
LINE
  8
0
 10
3.709
 11
3.758
 20
9.837
 21
10.111
  0
LINE
  8
0
 10
3.758
 11
3.853
 20
10.111
 21
10.373
  0
LINE
  8
0
 10
3.853
 11
3.992
 20
10.373
 21
10.615
  0
LINE
  8
0
 10
3.992
 11
4.172
 20
10.615
 21
10.828
  0
LINE
  8
0
 10
4.172
 11
4.385
 20
10.828
 21
11.008
  0
LINE
  8
0
 10
4.385
 11
4.627
 20
11.008
 21
11.147
  0
LINE
  8
0
 10
4.627
 11
4.889
 20
11.147
 21
11.242
  0
LINE
  8
0
 10
4.889
 11
5.163
 20
11.242
 21
11.291
  0
LINE
  8
0
 10
5.163
 11
5.443
 20
11.291
 21
11.291
  0
LINE
  8
0
 10
5.443
 11
5.718
 20
11.291
 21
11.242
  0
LINE
  8
0
 10
5.718
 11
5.98
 20
11.242
 21
11.147
  0
LINE
  8
0
 10
5.98
 11
6.221
 20
11.147
 21
11.008
  0
LINE
  8
0
 10
6.221
 11
6.435
 20
11.008
 21
10.828
  0
LINE
  8
0
 10
6.435
 11
6.614
 20
10.828
 21
10.615
  0
LINE
  8
0
 10
6.614
 11
6.754
 20
10.615
 21
10.373
  0
LINE
  8
0
 10
6.754
 11
6.849
 20
10.373
 21
10.111
  0
LINE
  8
0
 10
6.849
 11
6.897
 20
10.111
 21
9.837
  0
LINE
  8
0
 10
6.897
 11
6.897
 20
9.837
 21
9.557
  0
LINE
  8
0
 10
6.897
 11
6.849
 20
9.557
 21
9.282
  0
LINE
  8
0
 10
6.849
 11
6.754
 20
9.282
 21
9.02
  0
LINE
  8
0
 10
6.754
 11
6.614
 20
9.02
 21
8.779
  0
LINE
  8
0
 10
6.614
 11
6.435
 20
8.779
 21
8.565
  0
LINE
  8
0
 10
6.435
 11
6.221
 20
8.565
 21
8.386
  0
LINE
  8
0
 10
6.221
 11
5.98
 20
8.386
 21
8.246
  0
LINE
  8
0
 10
5.98
 11
5.718
 20
8.246
 21
8.151
  0
LINE
  8
0
 10
5.718
 11
5.443
 20
8.151
 21
8.103
  0
LINE
  8
0
 10
5.443
 11
5.163
 20
8.103
 21
8.103
  0
LINE
  8
0
 10
5.163
 11
4.889
 20
8.103
 21
8.151
  0
LINE
  8
0
 10
4.889
 11
4.627
 20
8.151
 21
8.246
  0
LINE
  8
0
 10
4.627
 11
4.385
 20
8.246
 21
8.386
  0
LINE
  8
0
 10
4.385
 11
4.172
 20
8.386
 21
8.565
  0
LINE
  8
0
 10
4.172
 11
3.992
 20
8.565
 21
8.779
  0
LINE
  8
0
 10
3.992
 11
3.853
 20
8.779
 21
9.02
  0
LINE
  8
0
 10
3.853
 11
3.758
 20
9.02
 21
9.282
  0
LINE
  8
0
 10
3.758
 11
3.709
 20
9.282
 21
9.557
  0
LINE
  8
0
 10
3.709
 11
3.709
 20
20.163
 21
20.443
  0
LINE
  8
0
 10
3.709
 11
3.758
 20
20.443
 21
20.718
  0
LINE
  8
0
 10
3.758
 11
3.853
 20
20.718
 21
20.98
  0
LINE
  8
0
 10
3.853
 11
3.992
 20
20.98
 21
21.221
  0
LINE
  8
0
 10
3.992
 11
4.172
 20
21.221
 21
21.435
  0
LINE
  8
0
 10
4.172
 11
4.385
 20
21.435
 21
21.614
  0
LINE
  8
0
 10
4.385
 11
4.627
 20
21.614
 21
21.754
  0
LINE
  8
0
 10
4.627
 11
4.889
 20
21.754
 21
21.849
  0
LINE
  8
0
 10
4.889
 11
5.163
 20
21.849
 21
21.897
  0
LINE
  8
0
 10
5.163
 11
5.443
 20
21.897
 21
21.897
  0
LINE
  8
0
 10
5.443
 11
5.718
 20
21.897
 21
21.849
  0
LINE
  8
0
 10
5.718
 11
5.98
 20
21.849
 21
21.754
  0
LINE
  8
0
 10
5.98
 11
6.221
 20
21.754
 21
21.614
  0
LINE
  8
0
 10
6.221
 11
6.435
 20
21.614
 21
21.435
  0
LINE
  8
0
 10
6.435
 11
6.614
 20
21.435
 21
21.221
  0
LINE
  8
0
 10
6.614
 11
6.754
 20
21.221
 21
20.98
  0
LINE
  8
0
 10
6.754
 11
6.849
 20
20.98
 21
20.718
  0
LINE
  8
0
 10
6.849
 11
6.897
 20
20.718
 21
20.443
  0
LINE
  8
0
 10
6.897
 11
6.897
 20
20.443
 21
20.163
  0
LINE
  8
0
 10
6.897
 11
6.849
 20
20.163
 21
19.889
  0
LINE
  8
0
 10
6.849
 11
6.754
 20
19.889
 21
19.627
  0
LINE
  8
0
 10
6.754
 11
6.614
 20
19.627
 21
19.385
  0
LINE
  8
0
 10
6.614
 11
6.435
 20
19.385
 21
19.172
  0
LINE
  8
0
 10
6.435
 11
6.221
 20
19.172
 21
18.992
  0
LINE
  8
0
 10
6.221
 11
5.98
 20
18.992
 21
18.853
  0
LINE
  8
0
 10
5.98
 11
5.718
 20
18.853
 21
18.758
  0
LINE
  8
0
 10
5.718
 11
5.443
 20
18.758
 21
18.709
  0
LINE
  8
0
 10
5.443
 11
5.163
 20
18.709
 21
18.709
  0
LINE
  8
0
 10
5.163
 11
4.889
 20
18.709
 21
18.758
  0
LINE
  8
0
 10
4.889
 11
4.627
 20
18.758
 21
18.853
  0
LINE
  8
0
 10
4.627
 11
4.385
 20
18.853
 21
18.992
  0
LINE
  8
0
 10
4.385
 11
4.172
 20
18.992
 21
19.172
  0
LINE
  8
0
 10
4.172
 11
3.992
 20
19.172
 21
19.385
  0
LINE
  8
0
 10
3.992
 11
3.853
 20
19.385
 21
19.627
  0
LINE
  8
0
 10
3.853
 11
3.758
 20
19.627
 21
19.889
  0
LINE
  8
0
 10
3.758
 11
3.709
 20
19.889
 21
20.163
  0
ENDSEC
  0
SECTION
  2
OBJECTS
  0
DICTIONARY
  0
ENDSEC
  0
EOF
